<?xml version="1.0" encoding="UTF-8" standalone="no" ?>
<!DOCTYPE svg PUBLIC "-//W3C//DTD SVG 1.1//EN" "http://www.w3.org/Graphics/SVG/1.1/DTD/svg11.dtd">
<svg xmlns="http://www.w3.org/2000/svg" xmlns:xlink="http://www.w3.org/1999/xlink" version="1.1" width="16" height="16" viewBox="0 0 16 16" xml:space="preserve">
<desc>Created with Fabric.js 4.6.0</desc>
<defs>
</defs>
<g transform="matrix(1 0 0 0.84 8 7.89)" id="Trb3R2WY8GhNfwqVFTWBz"  >
<path style="stroke: none; stroke-width: 1; stroke-dasharray: none; stroke-linecap: butt; stroke-dashoffset: 0; stroke-linejoin: miter; stroke-miterlimit: 4; fill: rgb(255,255,255); fill-rule: nonzero; opacity: 1;" vector-effect="non-scaling-stroke"  transform=" translate(-8, -6.93)" d="M 15.99952 0.69505 L 15.99952 13.16639 C 15.99984 13.32975 15.952960000000001 13.48767 15.86672 13.61279 C 15.780320000000001 13.737910000000001 15.660480000000002 13.822230000000001 15.528 13.85087 C 15.395520000000001 13.87935 15.258880000000001 13.85023 15.14256 13.76847 C 15.10656 13.741430000000001 11.232959999999999 11.087990000000001 7.99984 11.087990000000001 C 4.760479999999999 11.087990000000001 0.8936000000000002 13.741590000000002 0.8571200000000001 13.767990000000001 C 0.7406400000000001 13.849590000000001 0.60416 13.87855 0.4716800000000001 13.85007 C 0.3393600000000001 13.82175 0.2193600000000001 13.73775 0.13312000000000007 13.61247 C 0.046880000000000074 13.48751 -0.00031999999999993145 13.32943 8.326672684688674e-17 13.16639 L 8.326672684688674e-17 0.6950500000000002 C -0.00047999999999991675 0.5318500000000002 0.04672000000000008 0.37377000000000016 0.13296000000000008 0.24865000000000015 C 0.21920000000000006 0.12353000000000014 0.33920000000000006 0.03921000000000016 0.4718400000000001 0.010570000000000135 C 0.60416 -0.017749999999999867 0.7408000000000001 0.011210000000000135 0.85728 0.09297000000000014 C 0.89312 0.12001000000000014 4.7668800000000005 2.7734500000000004 8 2.7734500000000004 C 11.23328 2.7734500000000004 15.10672 0.11985000000000046 15.14272 0.09345000000000026 C 15.2592 0.012010000000000257 15.39568 -0.016949999999999743 15.52816 0.011370000000000255 C 15.660639999999999 0.03969000000000025 15.780479999999999 0.12385000000000025 15.866719999999999 0.24897000000000025 C 15.95296 0.37377000000000027 16.000159999999997 0.5320100000000003 15.999839999999999 0.6950500000000002 z" stroke-linecap="round" />
</g>
<g transform="matrix(1.48 0 0 0.5 8 7.89)" id="6DZz_LAC3xa6E5QXwIH4t"  >
<path style="stroke: rgb(243,44,111); stroke-width: 0; stroke-dasharray: none; stroke-linecap: butt; stroke-dashoffset: 0; stroke-linejoin: miter; stroke-miterlimit: 4; fill: rgb(0,0,0); fill-rule: nonzero; opacity: 1;" vector-effect="non-scaling-stroke"  transform=" translate(0, 0)" d="M -2.12202 -2.12202 L 2.1220100000000004 -2.12202 L 2.1220100000000004 2.1220100000000004 L -2.12202 2.1220100000000004 z" stroke-linecap="round" />
</g>
</svg>