<?xml version="1.0" encoding="UTF-8" standalone="no" ?>
<!DOCTYPE svg PUBLIC "-//W3C//DTD SVG 1.1//EN" "http://www.w3.org/Graphics/SVG/1.1/DTD/svg11.dtd">
<svg xmlns="http://www.w3.org/2000/svg" xmlns:xlink="http://www.w3.org/1999/xlink" version="1.1" width="512" height="512" viewBox="0 0 512 512" xml:space="preserve">
<desc>Created with Fabric.js 4.6.0</desc>
<defs>
</defs>
<g transform="matrix(1.99 0 0 2.28 250.45 256)" id="dmaxQStNdGz1ozfAe6AVe"  >
<filter id="SVGID_7" y="-26%" height="152%" x="-25%" width="150%" >
	<feGaussianBlur in="SourceAlpha" stdDeviation="2.5"></feGaussianBlur>
	<feOffset dx="6" dy="4" result="oBlur" ></feOffset>
	<feFlood flood-color="rgb(61,55,55)" flood-opacity="1"/>
	<feComposite in2="oBlur" operator="in" />
	<feMerge>
		<feMergeNode></feMergeNode>
		<feMergeNode in="SourceGraphic"></feMergeNode>
	</feMerge>
</filter>
<path style="stroke: none; stroke-width: 0; stroke-dasharray: none; stroke-linecap: butt; stroke-dashoffset: 0; stroke-linejoin: miter; stroke-miterlimit: 4; fill: rgb(255,255,255); fill-rule: nonzero; opacity: 1;filter: url(#SVGID_7);" vector-effect="non-scaling-stroke"  transform=" translate(-120, -80)" d="M 239.99995 8.02492 L 239.99995 151.97828 C 240.00595 153.86146000000002 239.30035 155.68543000000003 238.00675 157.13021 C 236.71195 158.57659 234.91315 159.54778000000002 232.92475000000002 159.87737 C 230.93875000000003 160.20537000000002 228.88915000000003 159.87097 227.14195 158.92698000000001 C 226.60315 158.61498 168.49917 127.98498000000001 119.99999000000001 127.98498000000001 C 71.40841 127.98498000000001 13.405230000000017 158.61499 12.858030000000014 158.91898 C 11.110830000000014 159.85977 9.063630000000014 160.19576 7.077630000000013 159.86617 C 5.091630000000014 159.53977 3.2928300000000132 158.56859 1.9980300000000133 157.12381000000002 C 0.7044300000000132 155.68223000000003 -0.0035699999999865284 153.85665000000003 0.000030000000013297168 151.97508000000002 L 0.000030000000013297168 8.021720000000016 C -0.005969999999986703 6.138540000000016 0.6996300000000133 4.314570000000016 1.9932300000000134 2.869790000000016 C 3.2880300000000133 1.423410000000016 5.086830000000013 0.45222000000001605 7.075230000000014 0.122630000000016 C 9.061230000000014 -0.205369999999984 11.110830000000014 0.129030000000016 12.858030000000014 1.073020000000016 C 13.396830000000014 1.3850200000000161 71.50081000000002 32.015020000000014 119.99999000000001 32.015020000000014 C 168.49917000000002 32.015020000000014 226.60435 1.3850100000000154 227.14195 1.081020000000013 C 228.88915 0.14023000000001296 230.93635 -0.19575999999998706 232.92235 0.133830000000013 C 234.90834999999998 0.460230000000013 236.70714999999998 1.431410000000013 238.00195 2.876190000000013 C 239.29555 4.317770000000014 240.00355 6.143350000000013 239.99994999999998 8.024920000000012 z" stroke-linecap="round" />
</g>
<g transform="matrix(1.87 0 0 1.81 250.45 240.31)" id="Trb3R2WY8GhNfwqVFTWBz"  >
<path style="stroke: none; stroke-width: 0; stroke-dasharray: none; stroke-linecap: butt; stroke-dashoffset: 0; stroke-linejoin: miter; stroke-miterlimit: 4; fill: rgb(0,0,0); fill-rule: nonzero; opacity: 1;" vector-effect="non-scaling-stroke"  transform=" translate(0, 0)" d="M 119.99996 -71.97665 L 119.99996 71.97720999999999 C 120.00556 73.86053999999999 119.29996 75.68495999999999 118.00636 77.12892999999998 C 116.71116 78.57490999999999 114.91276 79.54602999999999 112.92476 79.87624999999998 C 110.93916 80.20471999999998 108.88956 79.86910999999998 107.14236000000001 78.92656999999998 C 106.60316000000002 78.61416999999999 48.49918000000001 47.98471999999998 1.4210854715202004e-14 47.98471999999998 C -48.59117999999999 47.98471999999998 -106.59435999999998 78.61398999999999 -107.14235999999998 78.91925999999998 C -108.88955999999999 79.86002999999998 -110.93675999999998 80.19564999999999 -112.92235999999998 79.86715999999998 C -114.90795999999999 79.54047999999999 -116.70715999999999 78.56937999999998 -118.00235999999998 77.12517999999999 C -119.29595999999998 75.68280999999999 -120.00395999999998 73.85838999999999 -119.99995999999999 71.97665999999998 L -119.99995999999999 -71.97720000000001 C -120.00555999999999 -73.86053000000001 -119.29995999999998 -75.68495000000001 -118.00635999999999 -77.12892000000001 C -116.71115999999999 -78.57490000000001 -114.91275999999999 -79.54602000000001 -112.92475999999999 -79.87624000000001 C -110.93915999999999 -80.20471 -108.88955999999999 -79.8691 -107.14236 -78.92656000000001 C -106.60316 -78.61416000000001 -48.499179999999996 -47.98471000000001 0 -47.98471000000001 C 48.49918 -47.98471000000001 106.60396 -78.61398000000001 107.14236 -78.91925 C 108.88956 -79.86002 110.93675999999999 -80.19564000000001 112.92236 -79.86715000000001 C 114.90796 -79.54047000000001 116.70716 -78.56937 118.00236 -77.12517000000001 C 119.29596 -75.68280000000001 120.00395999999999 -73.85838000000001 119.99996 -71.97665 z" stroke-linecap="round" />
</g>
<g transform="matrix(1.47 0 0 1.3 250.45 240.31)" id="a6MQOzzfQ95muIw0LCiJ2"  >
<path style="stroke: none; stroke-width: 0; stroke-dasharray: none; stroke-linecap: butt; stroke-dashoffset: 0; stroke-linejoin: miter; stroke-miterlimit: 4; fill: rgb(108,59,244); fill-rule: nonzero; opacity: 1;" vector-effect="non-scaling-stroke"  transform=" translate(0, 0)" d="M 119.99996 -71.97665 L 119.99996 71.97720999999999 C 120.00556 73.86053999999999 119.29996 75.68495999999999 118.00636 77.12892999999998 C 116.71116 78.57490999999999 114.91276 79.54602999999999 112.92476 79.87624999999998 C 110.93916 80.20471999999998 108.88956 79.86910999999998 107.14236000000001 78.92656999999998 C 106.60316000000002 78.61416999999999 48.49918000000001 47.98471999999998 1.4210854715202004e-14 47.98471999999998 C -48.59117999999999 47.98471999999998 -106.59435999999998 78.61398999999999 -107.14235999999998 78.91925999999998 C -108.88955999999999 79.86002999999998 -110.93675999999998 80.19564999999999 -112.92235999999998 79.86715999999998 C -114.90795999999999 79.54047999999999 -116.70715999999999 78.56937999999998 -118.00235999999998 77.12517999999999 C -119.29595999999998 75.68280999999999 -120.00395999999998 73.85838999999999 -119.99995999999999 71.97665999999998 L -119.99995999999999 -71.97720000000001 C -120.00555999999999 -73.86053000000001 -119.29995999999998 -75.68495000000001 -118.00635999999999 -77.12892000000001 C -116.71115999999999 -78.57490000000001 -114.91275999999999 -79.54602000000001 -112.92475999999999 -79.87624000000001 C -110.93915999999999 -80.20471 -108.88955999999999 -79.8691 -107.14236 -78.92656000000001 C -106.60316 -78.61416000000001 -48.499179999999996 -47.98471000000001 0 -47.98471000000001 C 48.49918 -47.98471000000001 106.60396 -78.61398000000001 107.14236 -78.91925 C 108.88956 -79.86002 110.93675999999999 -80.19564000000001 112.92236 -79.86715000000001 C 114.90796 -79.54047000000001 116.70716 -78.56937 118.00236 -77.12517000000001 C 119.29596 -75.68280000000001 120.00395999999999 -73.85838000000001 119.99996 -71.97665 z" stroke-linecap="round" />
</g>
<g transform="matrix(0.64 0 0 0.57 250.45 244.06)" id="u28gZKcHtNMkmCEC6k4xG"  >
<filter id="SVGID_9" y="-26%" height="152%" x="-24%" width="148%" >
	<feGaussianBlur in="SourceAlpha" stdDeviation="2.5"></feGaussianBlur>
	<feOffset dx="4" dy="4" result="oBlur" ></feOffset>
	<feFlood flood-color="rgb(0,0,0)" flood-opacity="1"/>
	<feComposite in2="oBlur" operator="in" />
	<feMerge>
		<feMergeNode></feMergeNode>
		<feMergeNode in="SourceGraphic"></feMergeNode>
	</feMerge>
</filter>
<path style="stroke: none; stroke-width: 0; stroke-dasharray: none; stroke-linecap: butt; stroke-dashoffset: 0; stroke-linejoin: miter; stroke-miterlimit: 4; fill: rgb(255,255,255); fill-rule: nonzero; opacity: 1;filter: url(#SVGID_9);" vector-effect="non-scaling-stroke"  transform=" translate(0, 0)" d="M 119.99996 -71.97665 L 119.99996 71.97720999999999 C 120.00556 73.86053999999999 119.29996 75.68495999999999 118.00636 77.12892999999998 C 116.71116 78.57490999999999 114.91276 79.54602999999999 112.92476 79.87624999999998 C 110.93916 80.20471999999998 108.88956 79.86910999999998 107.14236000000001 78.92656999999998 C 106.60316000000002 78.61416999999999 48.49918000000001 47.98471999999998 1.4210854715202004e-14 47.98471999999998 C -48.59117999999999 47.98471999999998 -106.59435999999998 78.61398999999999 -107.14235999999998 78.91925999999998 C -108.88955999999999 79.86002999999998 -110.93675999999998 80.19564999999999 -112.92235999999998 79.86715999999998 C -114.90795999999999 79.54047999999999 -116.70715999999999 78.56937999999998 -118.00235999999998 77.12517999999999 C -119.29595999999998 75.68280999999999 -120.00395999999998 73.85838999999999 -119.99995999999999 71.97665999999998 L -119.99995999999999 -71.97720000000001 C -120.00555999999999 -73.86053000000001 -119.29995999999998 -75.68495000000001 -118.00635999999999 -77.12892000000001 C -116.71115999999999 -78.57490000000001 -114.91275999999999 -79.54602000000001 -112.92475999999999 -79.87624000000001 C -110.93915999999999 -80.20471 -108.88955999999999 -79.8691 -107.14236 -78.92656000000001 C -106.60316 -78.61416000000001 -48.499179999999996 -47.98471000000001 0 -47.98471000000001 C 48.49918 -47.98471000000001 106.60396 -78.61398000000001 107.14236 -78.91925 C 108.88956 -79.86002 110.93675999999999 -80.19564000000001 112.92236 -79.86715000000001 C 114.90796 -79.54047000000001 116.70716 -78.56937 118.00236 -77.12517000000001 C 119.29596 -75.68280000000001 120.00395999999999 -73.85838000000001 119.99996 -71.97665 z" stroke-linecap="round" />
</g>
</svg>